<svg width="140" height="84" viewBox="0 0 140 84" fill="none" xmlns="http://www.w3.org/2000/svg">
<line y1="82" x2="140" y2="82" stroke="#202123" stroke-width="4"/>
<line y1="2" x2="140" y2="2" stroke="#202123" stroke-width="4"/>
<path d="M33.5918 68H24.5V66.7354H26.2432V20.251H24.5V18.9863H33.5918V20.251H31.8486V66.7354H33.5918V68ZM29.0459 66.7354V20.251H27.6445V66.7354H29.0459ZM60.6895 61.1982C60.6895 63.1579 59.8691 64.8441 58.2285 66.2568C56.5879 67.6468 54.6055 68.3418 52.2812 68.3418C49.9798 68.3418 47.9974 67.6468 46.334 66.2568C44.6934 64.8441 43.873 63.1579 43.873 61.1982V25.7881C43.873 23.8285 44.6934 22.1536 46.334 20.7637C47.9974 19.3509 49.9798 18.6445 52.2812 18.6445C54.6055 18.6445 56.5879 19.3509 58.2285 20.7637C59.8691 22.1536 60.6895 23.8285 60.6895 25.7881V33.6836H55.084V22.7119C55.084 21.9372 54.8105 21.2764 54.2637 20.7295C53.7168 20.1826 53.056 19.9092 52.2812 19.9092C51.5065 19.9092 50.8457 20.1826 50.2988 20.7295C49.752 21.2764 49.4785 21.9372 49.4785 22.7119V64.2744C49.4785 65.0492 49.752 65.71 50.2988 66.2568C50.8457 66.8037 51.5065 67.0771 52.2812 67.0771C53.056 67.0771 53.7168 66.8037 54.2637 66.2568C54.8105 65.71 55.084 65.0492 55.084 64.2744V53.3027H60.6895V61.1982ZM57.8867 32.4531V24.6602C57.8867 22.7917 57.0436 21.3219 55.3574 20.251C56.1094 21.1169 56.4854 22.2676 56.4854 23.7031V32.4531H57.8867ZM47.5986 65.915C46.9834 65.0264 46.6758 63.8984 46.6758 62.5312V24.4551C46.6758 23.1107 46.9834 21.9941 47.5986 21.1055C46.0492 22.1536 45.2744 23.555 45.2744 25.3096V61.7109C45.2744 63.4427 46.0492 64.8441 47.5986 65.915ZM57.8867 62.3262V54.5674H56.4854V63.3174C56.4854 64.7301 56.1094 65.8695 55.3574 66.7354C57.0436 65.6644 57.8867 64.1947 57.8867 62.3262ZM88.6758 68H79.584V66.7354H81.3271L80.0625 52.5166H75.0381L73.6367 66.7354H75.3799V68H70.1162V66.7354H71.8594L76.7812 18.9863H82.3867L86.9326 66.7354H88.6758V68ZM79.9941 51.2861L77.6699 24.7969L75.1064 51.2861H79.9941ZM84.1299 66.7354L79.7207 20.251H78.3193L82.7285 66.7354H84.1299ZM115.295 39.8701C115.295 41.8298 114.475 43.516 112.834 44.9287C111.193 46.3187 109.211 47.0137 106.887 47.0137H104.46V66.7354H106.203V68H97.1113V66.7354H98.8545V20.251H97.1113V18.9863H106.887C109.211 18.9863 111.193 19.6927 112.834 21.1055C114.475 22.4954 115.295 24.1702 115.295 26.1299V39.8701ZM112.492 40.9639V25.0361C112.492 23.1449 111.66 21.6751 109.997 20.627C110.726 21.4701 111.091 22.6094 111.091 24.0449V41.9551C111.091 43.3906 110.726 44.5299 109.997 45.373C111.66 44.3249 112.492 42.8551 112.492 40.9639ZM109.689 42.9463V23.0537C109.689 22.279 109.416 21.6182 108.869 21.0713C108.322 20.5244 107.661 20.251 106.887 20.251H104.46V45.749H106.887C107.661 45.749 108.322 45.4756 108.869 44.9287C109.416 44.3818 109.689 43.721 109.689 42.9463ZM101.657 66.7354V20.251H100.256V66.7354H101.657Z" fill="#202123"/>
</svg>
