<svg width="368" height="648" viewBox="0 0 368 648" fill="none" xmlns="http://www.w3.org/2000/svg">
<g clip-path="url(#clip0_1_20)" filter="url(#filter0_d_1_20)">
<rect width="360" height="640" transform="translate(4)" fill="#D9B837"/>
<rect x="-96.0486" y="519.394" width="463.919" height="168.136" transform="rotate(-12 -96.0486 519.394)" fill="#202123"/>
<rect x="293.405" y="514.311" width="40" height="15" transform="rotate(-12 293.405 514.311)" fill="#D9B837"/>
<rect x="352.094" y="501.836" width="40" height="15" transform="rotate(-12 352.094 501.836)" fill="#D9B837"/>
<rect x="-0.0392151" y="576.685" width="40" height="15" transform="rotate(-12 -0.0392151 576.685)" fill="#D9B837"/>
<rect x="58.6497" y="564.21" width="40" height="15" transform="rotate(-12 58.6497 564.21)" fill="#D9B837"/>
<rect x="117.339" y="551.735" width="40" height="15" transform="rotate(-12 117.339 551.735)" fill="#D9B837"/>
<rect x="176.027" y="539.26" width="40" height="15" transform="rotate(-12 176.027 539.26)" fill="#D9B837"/>
<rect x="234.716" y="526.786" width="40" height="15" transform="rotate(-12 234.716 526.786)" fill="#D9B837"/>
<line x1="113.552" y1="667.41" x2="358.089" y2="615.432" stroke="#202123" stroke-width="5"/>
<line x1="-2.49491" y1="487.357" x2="367.783" y2="408.652" stroke="#202123" stroke-width="5"/>
</g>
<defs>
<filter id="filter0_d_1_20" x="0" y="0" width="368" height="648" filterUnits="userSpaceOnUse" color-interpolation-filters="sRGB">
<feFlood flood-opacity="0" result="BackgroundImageFix"/>
<feColorMatrix in="SourceAlpha" type="matrix" values="0 0 0 0 0 0 0 0 0 0 0 0 0 0 0 0 0 0 127 0" result="hardAlpha"/>
<feOffset dy="4"/>
<feGaussianBlur stdDeviation="2"/>
<feComposite in2="hardAlpha" operator="out"/>
<feColorMatrix type="matrix" values="0 0 0 0 0 0 0 0 0 0 0 0 0 0 0 0 0 0 0.25 0"/>
<feBlend mode="normal" in2="BackgroundImageFix" result="effect1_dropShadow_1_20"/>
<feBlend mode="normal" in="SourceGraphic" in2="effect1_dropShadow_1_20" result="shape"/>
</filter>
<clipPath id="clip0_1_20">
<rect width="360" height="640" fill="white" transform="translate(4)"/>
</clipPath>
</defs>
</svg>
